<svg width="202" height="32" xmlns="http://www.w3.org/2000/svg" xmlns:xlink="http://www.w3.org/1999/xlink"><defs><path id="a" d="M0 .462h60.978v30.246H0z"/><path id="c" d="M0 31.32h201.633V.461H0z"/></defs><g fill="none" fill-rule="evenodd"><path d="M62.49 9.457l-2.216-5.044-2.346 5.044h4.561zm-7.058 5.516h-4.646l7.17-13.862h5.143l6.842 13.862H64.78l-1.041-2.498h-7.19l-1.116 2.498zM70.62 14.973h4.458V1.111h-4.459zM77.77 14.973h4.46v-9.65h-4.46v9.65zm0-11.018h4.46V1.127h-4.46v2.828z" fill="#959EA6"/><g transform="translate(0 .22)"><path d="M93.664 9.963c0-.851-.2-1.523-.6-2.016-.4-.491-.945-.737-1.632-.737-.738 0-1.303.236-1.693.71-.39.473-.587 1.16-.587 2.063 0 .851.198 1.514.591 1.987.395.473.944.71 1.651.71.695 0 1.247-.245 1.656-.734.41-.489.614-1.15.614-1.983zM84.731.892h4.458v5.583a5.346 5.346 0 0 1 1.782-1.23 5.554 5.554 0 0 1 2.156-.408c1.518 0 2.74.485 3.662 1.457.921.971 1.382 2.26 1.382 3.863 0 1.46-.455 2.631-1.364 3.512-.91.881-2.117 1.32-3.624 1.32-.83 0-1.584-.15-2.26-.455a4.713 4.713 0 0 1-1.734-1.339c0 .32-.011.611-.037.874a3.64 3.64 0 0 1-.122.685H84.57c.051-.181.089-.409.117-.68.029-.273.043-.584.043-.934V.892zM107.937 10.573c-1.442 0-2.426.094-2.948.281-.525.188-.786.516-.786.986 0 .319.127.567.38.745.255.178.613.267 1.078.267.759 0 1.327-.177 1.706-.53.38-.352.57-.886.57-1.598v-.15zm.093 2.757c-.424.558-.976.97-1.652 1.24-.676.27-1.494.404-2.457.404-1.372 0-2.426-.244-3.164-.732-.738-.49-1.107-1.181-1.107-2.076 0-1.221.636-2.103 1.91-2.645 1.273-.542 3.404-.824 6.395-.85 0-.019.003-.055.01-.107.006-.054.009-.093.009-.118 0-.493-.15-.862-.445-1.106-.298-.243-.743-.366-1.337-.366-.537 0-.95.09-1.238.267-.288.178-.458.446-.515.802h-4.115c.02-1.07.526-1.867 1.521-2.39.995-.524 2.513-.785 4.554-.785 1.958 0 3.417.305 4.374.915.957.61 1.437 1.54 1.437 2.786v4.92c0 .307.015.553.043.741.028.187.076.362.144.524h-4.131a3.919 3.919 0 0 1-.18-.697 4.693 4.693 0 0 1-.056-.727zM123.641 9.963c0-.851-.2-1.523-.6-2.016-.4-.491-.945-.737-1.632-.737-.738 0-1.302.236-1.693.71-.391.473-.587 1.16-.587 2.063 0 .851.197 1.514.59 1.987.395.473.945.71 1.653.71.694 0 1.244-.245 1.654-.734.41-.489.615-1.15.615-1.983zM114.708.892h4.459v5.583a5.337 5.337 0 0 1 1.781-1.23 5.555 5.555 0 0 1 2.156-.408c1.518 0 2.739.485 3.66 1.457.922.971 1.383 2.26 1.383 3.863 0 1.46-.454 2.631-1.364 3.512-.909.881-2.117 1.32-3.623 1.32-.832 0-1.585-.15-2.259-.455a4.693 4.693 0 0 1-1.734-1.339c0 .32-.012.611-.038.874a3.64 3.64 0 0 1-.122.685h-4.458c.049-.181.088-.409.117-.68a9.07 9.07 0 0 0 .042-.934V.892zM137.913 10.573c-1.442 0-2.424.094-2.948.281-.524.188-.786.516-.786.986 0 .319.128.567.381.745.255.178.613.267 1.078.267.758 0 1.327-.177 1.707-.53.379-.352.568-.886.568-1.598v-.15zm.093 2.757a3.81 3.81 0 0 1-1.65 1.24c-.678.27-1.496.404-2.459.404-1.37 0-2.426-.244-3.164-.732-.737-.49-1.106-1.181-1.106-2.076 0-1.221.636-2.103 1.91-2.645 1.273-.542 3.404-.824 6.395-.85 0-.019.004-.055.01-.107.006-.054.008-.093.008-.118 0-.493-.148-.862-.445-1.106-.296-.243-.742-.366-1.336-.366-.538 0-.95.09-1.237.267-.289.178-.46.446-.516.802h-4.114c.018-1.07.524-1.867 1.52-2.39.995-.524 2.514-.785 4.554-.785 1.958 0 3.417.305 4.375.915.957.61 1.436 1.54 1.436 2.786v4.92c0 .307.014.553.042.741.028.187.077.362.146.524h-4.133a4.039 4.039 0 0 1-.18-.697 4.693 4.693 0 0 1-.056-.727zM156.033 9.363V7.745h5.824v5.099c-.895.712-1.816 1.248-2.767 1.607a8.215 8.215 0 0 1-2.926.539c-1.35 0-2.578-.29-3.681-.87a5.746 5.746 0 0 1-2.5-2.511c-.563-1.097-.843-2.32-.843-3.673 0-1.34.28-2.59.84-3.753.557-1.161 1.363-2.023 2.414-2.587 1.05-.564 2.26-.846 3.629-.846.994 0 1.893.162 2.695.485.805.323 1.435.772 1.891 1.35.457.576.803 1.329 1.04 2.257l-1.648.45c-.206-.702-.461-1.255-.767-1.657-.306-.402-.742-.724-1.312-.966a4.76 4.76 0 0 0-1.89-.363c-.83 0-1.547.127-2.152.381-.607.255-1.095.59-1.466 1.004a4.77 4.77 0 0 0-.866 1.365 7.247 7.247 0 0 0-.524 2.778c0 1.23.21 2.26.631 3.089.421.828 1.034 1.443 1.84 1.845a5.65 5.65 0 0 0 2.564.603c.787 0 1.554-.152 2.304-.457.748-.305 1.317-.63 1.704-.977V9.363h-4.034zM164.307 14.754v-9.98h1.524v1.515c.39-.707.749-1.172 1.08-1.398a1.888 1.888 0 0 1 1.087-.337c.571 0 1.152.18 1.742.54l-.59 1.567c-.414-.242-.826-.362-1.24-.362-.368 0-.7.11-.995.332a1.821 1.821 0 0 0-.63.926 6.592 6.592 0 0 0-.281 1.974v5.223h-1.697zM172.142 9.767c0 1.278.278 2.235.835 2.87a2.667 2.667 0 0 0 2.098.954c.837 0 1.534-.32 2.09-.959.555-.638.832-1.612.832-2.921 0-1.234-.278-2.169-.837-2.805-.558-.635-1.255-.954-2.085-.954-.843 0-1.543.317-2.098.95-.557.632-.835 1.588-.835 2.865m-1.743-.003c0-1.846.513-3.214 1.54-4.103.857-.738 1.903-1.107 3.136-1.107 1.371 0 2.492.448 3.362 1.346.868.899 1.304 2.14 1.304 3.723 0 1.283-.192 2.293-.578 3.027a4.073 4.073 0 0 1-1.68 1.713 4.89 4.89 0 0 1-2.408.611c-1.396 0-2.523-.447-3.384-1.342-.862-.895-1.292-2.185-1.292-3.868M188.52 14.754v-1.476c-.775 1.13-1.828 1.696-3.159 1.696-.59 0-1.136-.112-1.646-.338-.51-.225-.888-.509-1.134-.85-.248-.342-.42-.76-.521-1.254-.069-.332-.103-.857-.103-1.578v-6.18h1.697v5.528c0 .883.034 1.477.102 1.784.106.444.331.793.674 1.046.344.254.77.38 1.275.38.506 0 .98-.13 1.425-.39.443-.259.757-.612.94-1.06.185-.447.278-1.096.278-1.947V4.773h1.695v9.981h-1.522zM194.504 9.821c0 1.285.259 2.234.778 2.848.518.615 1.144.922 1.882.922.749 0 1.39-.318 1.925-.954.534-.636.8-1.622.8-2.956 0-1.272-.26-2.225-.782-2.858-.52-.632-1.144-.95-1.868-.95-.719 0-1.354.338-1.907 1.011-.551.674-.828 1.653-.828 2.937zm-1.523 8.752v-13.8h1.538v1.298c.362-.506.774-.885 1.232-1.138.455-.253 1.009-.38 1.658-.38.85 0 1.602.22 2.253.658.65.438 1.14 1.056 1.473 1.854.331.798.498 1.673.498 2.624 0 1.02-.184 1.939-.55 2.755-.365.816-.897 1.442-1.592 1.877-.698.436-1.431.653-2.197.653a3.19 3.19 0 0 1-1.516-.355 3.426 3.426 0 0 1-1.1-.897v4.851h-1.697zM6.82 27.13c-.248-.028-.634-.248-.908-.468-2.611-2.56.741-5.504 4.62-7.21V14.58c.906.578 1.402.606 1.428.687l2.969-2.944-.99-2.533c8.688-3 12.179-4.155 19.245-5.338l-1.267-1.184 2.064-1.183c4.755 1.57 9.238 1.982 8.467 5.972.193-2.696-3.161-3.743-8.275-5.173l-.99.604 1.897 1.57c-8.466 1.458-13.663 3.11-19.848 5.255l.851 2.203-3.105 3.054c.523.138 5.938 1.954 11.572-1.981 0 0 .112-.083.112-.11-.164-.276-.55-.578-1.017-.99 1.65.11 2.72 1.568 2.528 3.08h-.77a2.762 2.762 0 0 0-.219-1.375c-4.371 3.193-9.43 3.66-13.746 2.147v3.77c-2.09.743-5.83 3.054-5.801 5.285.137 1.072.688 1.458 1.183 1.734" fill="#959EA6"/><mask id="b" fill="#fff"><use xlink:href="#a"/></mask><path d="M24.498 26.167c-4.677 2.368-9.156 4.266-16.057 4.54-8.99-.192-10.39-6.165-6.13-12.411 4.014-6.302 10.392-12 20.537-15.55C25.788 1.7 30.105.518 34.284.463 40.277.407 46.106 2.279 45.72 8.03c-.22 4.403-6.57 10.623-9.924 15.082-1.43 1.952-1.678 3.22.768 3.11 8.882-.58 16.936-3.66 24.414-6.854-5.058 3.44-31.204 16.402-31.312 7.57.026-1.13.548-2.313 1.4-3.579.826-1.266 1.98-2.587 3.163-3.936 1.786-2.037 6.212-6.907 7.697-9.825 2.501-5.531-3.107-5.807-7.946-7.512l-2.063 1.182 1.267 1.184C26.118 5.636 22.627 6.79 13.939 9.792l.99 2.533-2.969 2.944c-.082-.083-.522-.11-1.43-.689v4.872c-3.877 1.706-7.23 4.65-4.619 7.21.275.22.661.44.909.469 4.755 2.698 17.703-.964 17.678-.964" fill="#959EA6" mask="url(#b)"/><path d="M51.894 29.6v-2.181h.963c.192 0 .34.02.44.055a.48.48 0 0 1 .238.212.583.583 0 0 1 .092.327.568.568 0 0 1-.148.393c-.101.102-.253.17-.462.202.077.036.134.07.174.107.08.08.163.174.235.29l.379.595h-.362l-.283-.45c-.084-.136-.158-.232-.208-.304a.698.698 0 0 0-.147-.146.438.438 0 0 0-.13-.06 1.468 1.468 0 0 0-.16-.01h-.332v.97h-.29zm.289-1.226h.615c.131 0 .23-.014.304-.037a.331.331 0 0 0 .17-.13.366.366 0 0 0 .058-.194.33.33 0 0 0-.111-.253c-.075-.065-.19-.097-.35-.097h-.686v.71z" fill="#959EA6"/><path d="M51.01 28.61c0-.965.783-1.75 1.748-1.75.964 0 1.75.785 1.75 1.75a1.749 1.749 0 0 1-3.497 0m1.747 2.073a2.076 2.076 0 0 0 2.073-2.073c0-1.144-.93-2.075-2.073-2.075a2.075 2.075 0 0 0 0 4.148M75.061 19.41v1.436h4.97V31.158c.556 0 1.756-.536 1.756-1.652v-8.66c.358 0 .653-1.046.653-1.437h-7.379zm2.058 8.198h.88v-4.475h-.88v4.475zm2.51-.588v-5.26h-4.143v7.189h2.056a2.28 2.28 0 0 0 1.044-.392c.198-.131.362-.261.524-.425.293-.327.52-.72.52-1.112zm-6.524-3.724c0 .195-.162.524-.36.72-.03.034-.13.131-.13.131-.015.014-.032.032-.066.032h.556v3.396h-.685v-6.73h.685v2.451zM70.69 19.41v11.75c.816 0 1.727-.741 1.727-1.557v-.616h.977c.653-.033 1.408-.952 1.408-1.41v-2.614c0-.491-.555-.847-.818-1.045.263-.23.818-.62.818-1.112v-3.396h-4.112zM88.116 22.261h-2.488v-1.525h2.487v1.525zm-2.488 2.86h2.488v-1.527h-2.488v1.527zm4.58-1.527h.895a.63.63 0 0 0 .397-.136c.166-.098.962-1.096 1.062-1.197h-2.355v-1.525h2.555v4.385h-2.555v-1.527zm0 6.21v-1.098h3.484c.504 0 .96-.861 1.228-1.327h-4.713v-.93h2.62c.745 0 1.957-1.031 1.99-1.562v-5.478H83.606v7.04h4.51v.93h-4.51v1.327h4.51v1.098h-4.641v1.36h10.515c.432 0 .829-.861 1.161-1.36h-4.943z" fill="#959EA6"/><mask id="d" fill="#fff"><use xlink:href="#c"/></mask><path d="M98.505 24.82h2.485v-3.9h-2.485v3.9zm4.533 0h2.364v-3.9h-2.364v3.9zm-4.55 4.822v-3.31h7.169c.647 0 1.812-1.075 1.842-1.613v-5.31H96.372v10.114c0 .808.486 1.646 1.394 1.646h8.495c.64 0 1.41-1.022 1.542-1.527h-9.314zM111.332 24.82h2.482v-3.9h-2.482v3.9zm4.531 0h2.366v-3.9h-2.366v3.9zm-4.552 4.822v-3.31h7.17c.65 0 1.812-1.075 1.847-1.613v-5.31H109.2v10.114c0 .808.487 1.646 1.392 1.646h8.493c.64 0 1.411-1.022 1.546-1.527h-9.32zM127.994 27.203v-.369h.834v.317h5.054s-.123.682-1.226.682h-3.774v1.828c0 1.386-.888 1.552-.888 1.552v-3.328h-6.02v-.682h6.02z" fill="#959EA6" mask="url(#d)"/><path d="M124.347 28.945h.9s-.937 1.208-1.219 1.525c-.281.314-.658.817-1.201.817-.304 0-.405.007-.405.007l1.925-2.349zM132.058 28.945h-.9s.937 1.208 1.218 1.525c.282.314.658.817 1.2.817.304 0 .405.007.405.007l-1.923-2.349zM127.994 21.664h-4.27l-.004-.38.217-.31.288-.367h3.769v1.057zm-4.27 1.794h4.27V22.41h-4.27v1.05zm0 1.741h4.27v-1.065h-4.27V25.2zm8.932-4.645c1.075 0 1.28-.682 1.28-.682h-5.042l.367-.474h-.828l-.423.526h-3.39l.418-.526h-.864l-2.148 2.795h.92v3.822s.094.01.216 0c1.334 0 1.446-.176 1.446-.176h8.048c1.07 0 1.174-.64 1.174-.64h-5.006v-1.116h3.832c1.055 0 1.226-.677 1.226-.677h-5.058v-1.102h3.832c1.055 0 1.226-.69 1.226-.69h-5.058v-1.06h3.832zM146.402 29.782c0 .43-.095.766-.658.766h-8.766v-10.41h9.424v9.644zM136.233 19.45v11.869h9.977c.75 0 1.036-.713 1-1.45v-10.42h-10.977z" fill="#959EA6" mask="url(#d)"/><path d="M140.884 24.498l-2.522 4.553s.846.16 1.232-.644l2.144-3.898-.854-.011z" fill="#959EA6" mask="url(#d)"/><path d="M143.86 28.1c0 .247-.09.369-.265.369h-.842v.669h1.07c.66 0 .878-.24.843-.979 0 0-.006-4.436 0-4.436.83 0 .883-.695.883-.695l-.883.009v-1.53h-.807v1.53h-5.673v.737h5.673V28.1z" fill="#959EA6" mask="url(#d)"/></g></g></svg>