<svg width="110" height="36" xmlns="http://www.w3.org/2000/svg" xmlns:xlink="http://www.w3.org/1999/xlink"><defs><path id="a" d="M.057.026h15.352v14.398H.057z"/></defs><g fill="none" fill-rule="evenodd"><path d="M36.202 11.224v-2.62c0-4.77-3.8-8.598-8.549-8.598h-1.365v8.156l-2.85 1.207V.006H8.569C3.82.006.02 3.804.02 8.604v2.62H7.5v2.826H.02v13.19c0 4.77 3.8 8.598 8.548 8.598h14.87v-2.71l2.85 1.532v1.178h1.365c4.75 0 8.549-3.798 8.549-8.598V14.05h-4.245l.653-2.826h3.592zm-23.419 0h6.56l-6.441 2.826h-.119v-2.826zM26.318 33.6l-9.705-5.9-4.69 3.898 1.87-5.889.016.012.013-.041L32.729 6.336 11.24 24.716v-.008l-7.985-5.123 29.8-13.749L26.318 33.6z" fill="#959EA6" fill-rule="nonzero"/><path d="M47.28 24.368h1.544l-.611 6.101h-1.544l.064-.644a3.43 3.43 0 0 1-.97.61c-.315.126-.65.188-1.004.188-.794 0-1.451-.303-1.97-.915-.518-.615-.733-1.371-.64-2.281.092-.943.45-1.712 1.072-2.315.622-.602 1.333-.905 2.135-.905.37 0 .71.07 1.02.21.31.137.588.347.837.624l.067-.673zm-1.749 1.253c-.477 0-.89.17-1.24.504-.349.336-.551.762-.603 1.286-.054.526.066.961.353 1.301.287.341.664.512 1.133.512a1.77 1.77 0 0 0 1.259-.504c.352-.333.556-.772.609-1.316.054-.53-.062-.959-.349-1.29-.286-.326-.673-.493-1.162-.493zM51.243 24.368h1.545l-.07.699c.29-.288.607-.504.944-.644a2.754 2.754 0 0 1 1.077-.214c.387 0 .722.095 1.013.28.291.188.514.461.665.82.281-.359.611-.632.986-.82.375-.185.776-.28 1.197-.28.437 0 .812.1 1.125.303.311.201.523.467.636.79.112.327.132.855.06 1.587l-.36 3.58h-1.555l.31-3.098c.069-.691.028-1.158-.12-1.406-.148-.242-.397-.366-.743-.366a1.27 1.27 0 0 0-.731.227 1.522 1.522 0 0 0-.53.619c-.129.263-.223.687-.282 1.27l-.275 2.754h-1.556l.295-2.956c.058-.546.055-.942 0-1.188-.059-.242-.162-.426-.312-.546a.885.885 0 0 0-.572-.18c-.256 0-.499.077-.722.228a1.528 1.528 0 0 0-.535.638c-.133.272-.225.702-.286 1.288l-.271 2.716h-1.543l.61-6.101zM67.557 24.368h1.542l-.61 6.101h-1.546l.065-.644c-.33.283-.651.486-.969.61a2.68 2.68 0 0 1-1.003.188c-.796 0-1.451-.303-1.971-.915-.518-.615-.734-1.371-.642-2.281.092-.943.451-1.712 1.074-2.315.62-.602 1.333-.905 2.135-.905.37 0 .71.07 1.02.21.31.137.588.347.835.624l.07-.673zm-1.751 1.253c-.476 0-.89.17-1.241.504-.348.336-.549.762-.6 1.286-.055.526.062.961.351 1.301.288.341.664.512 1.134.512a1.77 1.77 0 0 0 1.258-.504c.352-.333.555-.772.611-1.316.053-.53-.063-.959-.35-1.29-.288-.326-.674-.493-1.163-.493zM73.063 24.368l-.067.673c.307-.277.63-.487.968-.624.337-.14.69-.21 1.061-.21.803 0 1.456.303 1.957.905.502.603.706 1.372.612 2.315-.091.91-.458 1.666-1.101 2.281-.642.612-1.36.915-2.158.915-.354 0-.677-.062-.97-.188a2.639 2.639 0 0 1-.848-.61l-.29 2.874h-1.532l.835-8.331h1.533zm1.497 1.253c-.486 0-.908.167-1.26.493-.352.331-.556.76-.61 1.29-.053.544.062.983.351 1.316.285.336.673.504 1.159.504.47 0 .885-.17 1.242-.512.356-.34.562-.775.614-1.301.052-.524-.062-.95-.347-1.286-.282-.335-.665-.504-1.15-.504zM80.438 28.87c.247 0 .448.085.603.253a.763.763 0 0 1 .198.622.948.948 0 0 1-.322.621.955.955 0 0 1-.654.257.774.774 0 0 1-.602-.257.76.76 0 0 1-.197-.621.944.944 0 0 1 .32-.622.964.964 0 0 1 .654-.253M90.059 25.6l-1.356.7c-.216-.249-.438-.422-.664-.521a2.104 2.104 0 0 0-.815-.145c-.577 0-1.063.169-1.454.511-.389.342-.611.78-.666 1.313-.052.52.077.944.39 1.271.308.329.742.495 1.302.495.691 0 1.253-.236 1.686-.704l1.134.828c-.744.852-1.719 1.275-2.923 1.275-1.082 0-1.899-.317-2.447-.95-.549-.637-.78-1.383-.696-2.233a3.39 3.39 0 0 1 .61-1.631c.35-.498.803-.889 1.368-1.175a3.991 3.991 0 0 1 1.83-.425c.61 0 1.149.12 1.612.361a2.71 2.71 0 0 1 1.089 1.03M95.35 24.209c.58 0 1.111.145 1.595.432.48.288.842.68 1.078 1.173.237.494.326 1.027.27 1.597a3.501 3.501 0 0 1-.594 1.616c-.34.5-.772.89-1.299 1.174a3.508 3.508 0 0 1-1.687.422c-.883 0-1.607-.31-2.167-.932-.561-.62-.798-1.378-.71-2.269.097-.954.528-1.748 1.298-2.381.674-.555 1.41-.832 2.215-.832m-.118 1.443c-.479 0-.896.165-1.249.494-.353.332-.553.755-.606 1.27-.052.532.063.962.346 1.29.281.33.663.494 1.148.494a1.78 1.78 0 0 0 1.257-.498c.353-.334.558-.762.61-1.285.053-.523-.064-.95-.345-1.275-.284-.328-.669-.49-1.16-.49M100.716 24.368h1.545l-.07.699c.293-.288.608-.504.944-.644.339-.142.696-.214 1.076-.214.387 0 .726.095 1.017.28.29.188.513.461.666.82.279-.359.607-.632.984-.82.376-.185.774-.28 1.196-.28.438 0 .812.1 1.124.303.311.201.523.467.638.79.113.327.13.855.058 1.587l-.358 3.58h-1.555l.309-3.098c.069-.691.03-1.158-.12-1.406-.149-.242-.397-.366-.743-.366-.265 0-.508.075-.732.227a1.53 1.53 0 0 0-.53.619c-.128.263-.221.687-.28 1.27l-.276 2.754h-1.554l.294-2.956c.055-.546.054-.942-.003-1.188-.055-.242-.16-.426-.309-.546a.893.893 0 0 0-.572-.18c-.257 0-.498.077-.724.228a1.534 1.534 0 0 0-.533.638c-.132.272-.226.702-.286 1.288l-.27 2.716h-1.546l.61-6.101zM42.127 20.991v-5.167c0-1.366.724-2.049 2.168-2.055h11.21c.854-.007 1.465.153 1.835.49.382.351.57.798.57 1.344v3.207c0 1.472-.693 2.203-2.063 2.19l-1.22-.009.947-1.555.214-.01c.373 0 .571-.247.571-.743v-2.68c0-.436-.237-.652-.71-.652H44.407c-.466 0-.699.18-.699.541v5.1h-1.58zm.01-12.29V7.24h7.088l1.588-.635v.635h7.405L57.271 8.7H42.137zm2.158.695h11.406c.58 0 .995.095 1.246.304.29.237.435.606.435 1.107v.871c0 .491-.14.87-.419 1.136-.226.212-.636.32-1.227.32H44.389c-.62 0-1.053-.093-1.296-.28-.29-.219-.437-.56-.437-1.022v-1.118c0-.473.16-.828.478-1.065.234-.17.62-.253 1.161-.253zm11.577 1.979v-.177c0-.277-.168-.417-.503-.417H44.67c-.335 0-.503.103-.503.304v.222c0 .18.042.304.128.371.074.057.207.086.402.086h10.688c.325 0 .487-.13.487-.39zm-9.922 4.787h7.729c.616 0 1.052.101 1.313.322.28.226.42.586.42 1.082v.863c0 .942-.492 1.412-1.476 1.412h-7.892c-.42 0-.7-.03-.836-.092-.478-.22-.717-.68-.717-1.379v-.93c0-.384.14-.697.419-.939.254-.225.603-.339 1.04-.339zm.563 2.335h6.902c.336 0 .504-.093.504-.279V17.88c0-.22-.168-.33-.504-.33h-6.952c-.212 0-.348.045-.411.135-.045.057-.067.166-.067.33 0 .19.033.319.102.38.074.068.216.102.426.102zM59.497 11.136V9.444c.63-.215 1.083-.426 1.356-.634.319-.243.579-.554.784-.939.187-.354.373-.778.554-1.266h1.713c-.283.968-.57 1.698-.86 2.189-.768 1.268-1.95 2.048-3.547 2.342zm0 3.742V13.18c.677-.197 1.185-.456 1.526-.778.404-.387.79-1.075 1.159-2.063h1.722c-.329 1.146-.726 2.036-1.192 2.671V21h-1.587v-6.628a7.513 7.513 0 0 1-1.628.506zm9.523-5.527v-.82h-4.68V7.24h4.68l1.577-.634v.634h5.022l-.946 1.293h-4.076v.82h3.155c.664 0 1.095.092 1.288.279.176.174.264.5.264.98v1.69c0 .518-.086.865-.256 1.041-.188.192-.52.288-.997.288h-8.118c-.63 0-1.019-.05-1.167-.146a.914.914 0 0 1-.316-.337c-.074-.157-.11-.409-.11-.752v-1.953c0-.728.383-1.09 1.15-1.09h3.53zm-4.68 6.398v-1.326h11.279l-.946 1.326H64.34zm0 5.251v-1.556c.17-.05.278-.132.323-.245.04-.102.08-.334.12-.702l.188-1.902h1.389l-.23 2.342c-.069.692-.247 1.203-.536 1.529-.269.288-.686.467-1.255.534zm3.206-8.759v-1.52h-1.16c-.33 0-.495.135-.495.404v.55c0 .248.025.402.077.459.074.072.202.107.384.107h1.194zm-.555 4.354h1.586v2.528c0 .333.204.498.615.498h3.81l-.946 1.38h-3.479c-.494 0-.878-.137-1.151-.407-.29-.293-.435-.772-.435-1.437v-2.562zm2.14-4.354h1.63v-1.52h-1.63v1.52zm1.023 6.822h1.568v-2.468h-1.568v2.468zm2.183-6.822h1.083c.22 0 .332-.185.332-.556v-.524c0-.293-.144-.44-.434-.44h-.981v1.52zm.989 4.354h1.39l.154 1.902c.038.44.084.702.135.787.046.079.145.132.299.16V21c-.596-.04-1.046-.246-1.348-.616-.197-.244-.334-.575-.408-.999a52.4 52.4 0 0 1-.128-1.486l-.094-1.304zM86.065 19.424c-.45 0-.749-.113-.93-.338-.16-.202-.222-.51-.222-.922v-8.132l2.198-.247v8.1h1.56V9.626l.998-.12c.25-.029.43-.042.562-.042.574 0 .852.42.852 1.26v4.758c0 .3-.055.521-.174.669-.183.213-.41.338-.41.338l-.883 1.606h.3c.768 0 1.39-.17 1.85-.497.627-.448.948-1.173.948-2.167v-5.248a2.32 2.32 0 0 0-.725-1.718c-.416-.41-.9-.616-1.463-.616-.204 0-.862.058-1.855.176v-1.42l-1.56.6v1.04l-2.21.213-.014-1.854-1.609.601-.019 1.43.015 1.745-.017 7.9c0 .628.138 1.159.411 1.616.432.722 1.231 1.075 2.397 1.075h5.8l.884-1.577-6.684.03z" fill="#959EA6"/><path fill="#959EA6" d="M83.33 8.837h-3.098V6.604l-1.56.601v1.632h-1.774v1.543h1.773v9.048h-1.773v1.543h4.926l.885-1.543h-2.477V10.38h3.113v-.2z"/><g transform="translate(94.54 6.577)"><mask id="b" fill="#fff"><use xlink:href="#a"/></mask><path d="M.057 11.977V2.49c0-.81.21-1.428.626-1.852.24-.238.477-.397.71-.478.259-.089.584-.135.978-.135H12.96c.639 0 1.105.097 1.396.289.702.448 1.054 1.122 1.054 2.023v9.493c0 .754-.098 1.28-.3 1.582-.457.674-1.148 1.01-2.074 1.01H2.465c-.77 0-1.368-.205-1.791-.62-.228-.233-.38-.45-.454-.653-.109-.296-.163-.686-.163-1.173zm2.777.874h9.867c.423 0 .714-.093.874-.28.166-.187.25-.479.25-.876v-8.89c0-.441-.081-.739-.24-.892-.207-.21-.544-.314-1.013-.314H2.988c-.462 0-.762.045-.899.135a.996.996 0 0 0-.334.341c-.076.136-.113.379-.113.73v8.89c0 .43.095.737.283.918.172.159.474.238.91.238zm-.163-5.176v-1.3h1.303c.646 0 1.3-.025 1.963-.077a25.457 25.457 0 0 1-1.963-1.325h2.323c.31.182.912.474 1.81.876 1.17-.555 1.916-.941 2.236-1.156.286-.188.428-.36.428-.52 0-.158-.319-.237-.959-.237h-5.04c-.308.379-.592.666-.85.859-.273.22-.67.45-1.19.689V3.936c.28-.222.536-.501.771-.841.079-.12.228-.432.446-.936h1.687l-.11.4h4.51c.988 0 1.694.204 2.116.612.251.243.377.534.377.867 0 .453-.248.884-.746 1.291-.296.25-.8.581-1.508.996.274.01.48.02.617.025.297.016.486.025.566.025h2.022l-.89 1.3h-.942c-1.036 0-2.176-.136-3.422-.407a8.159 8.159 0 0 1-1.577.298c-.806.072-1.257.11-1.354.11H2.67zm.087 2.134v-1.3h8.056c.263 0 .412-.108.447-.324h1.501a1.645 1.645 0 0 1-.267.825 1.546 1.546 0 0 1-.609.569c-.28.154-.566.23-.858.23h-8.27zm0 2.168v-1.3h8.075c.171 0 .282-.027.334-.077.034-.035.065-.117.094-.248h1.501c-.184 1.083-.816 1.625-1.894 1.625h-8.11z" fill="#959EA6" mask="url(#b)"/></g></g></svg>