<svg width="111" height="43" xmlns="http://www.w3.org/2000/svg"><g fill="#959EA6" fill-rule="nonzero"><path d="M54.998 33.277c0 .261-.12.394-.356.394h-5.277l.357 1.345h5.055c.568 0 .96-.125 1.228-.398.288-.288.4-.617.4-1.17v-6.114c0-.542-.133-.914-.419-1.17a1.328 1.328 0 0 0-.644-.322v-5.857c0-.542-.131-.913-.417-1.171-.303-.275-.648-.38-1.23-.38h-6.227v1.344h6.048c.276 0 .414.11.414.334v5.67h-4.098c-.274 0-.44-.1-.413-.336l.417-4.465h-1.41l-.42 4.591c-.052.534.133.91.418 1.169.305.276.646.383 1.23.383h4.925c.274 0 .414.113.414.337v1.872h-7.944v1.345h7.949v2.6zm-8.514.859c.073.331.15.638.232.88h1.456c-.331-.975-.622-2.978-.722-3.705h-1.436c.042.317.12.882.22 1.497-.485.174-1.364.262-2.17.302v-3.672h1.152c.585 0 .927-.106 1.232-.38.283-.262.416-.633.416-1.172v-6.227c0-.54-.133-.91-.416-1.171-.305-.275-.648-.381-1.232-.381h-1.151v-1.73H42.65v1.73h-1.153c-.582 0-.927.106-1.23.38-.285.258-.417.632-.417 1.172v6.227c0 .54.132.913.417 1.171.303.275.648.381 1.23.381h1.153v3.709h-3.13v1.348h3.172c.999-.002 2.991-.002 3.79-.36zm-2.42-12.688h.975c.274 0 .412.114.412.338v5.97c0 .224-.138.34-.412.34h-.974v-6.648zm-1.413 6.648h-.975c-.274 0-.412-.116-.412-.34v-5.97c0-.224.138-.338.412-.338h.975v6.648zm38.557-7.835c.238-.36.455-.454 1.142-.454h4.507c.687 0 .907.095 1.145.454.671 1.011 2.095 3.248 2.73 4.166h1.942c-.678-.993-2.46-3.784-3.143-4.768-.561-.808-1.244-1.194-2.212-1.194h-.36a.261.261 0 0 0-.024-.132l-.318-.709c.998-.34 1.636-1.122 1.448-1.814-.202-.744-1.27-1.101-2.385-.804-.825.22-1.445.738-1.634 1.291a.906.906 0 0 0-.783-.486c.042-.135.067-.274.065-.42a1.393 1.393 0 0 0-1.141-1.339l-.026-1.107a.3.3 0 0 0-.307-.293h-.014a.3.3 0 0 0-.295.306l.026 1.12a1.39 1.39 0 0 0-.476.225l-.722-.805a.3.3 0 0 0-.231-.104.316.316 0 0 0-.197.075l-.008.008a.299.299 0 0 0-.028.423l.781.875a1.36 1.36 0 0 0-.168.672 1.396 1.396 0 0 0 1.793 1.3.91.91 0 0 0 .286.638l-.519.991a.254.254 0 0 0-.024.089h-.17c-.968 0-1.652.386-2.213 1.194-.684.984-2.465 3.775-3.144 4.768h1.946c.634-.918 2.058-3.155 2.73-4.166zm4.799-2.494l.313.698h-.77l-.089-.68c.176.013.36.007.546-.018zm-1.692-.41c.135.129.31.23.51.3l.103.809h-.727l.114-1.11zm-1.145.267a.44.44 0 0 0 .086.01.929.929 0 0 0 .423-.116l-.1.947h-.845l.436-.84zM69.787 30.218a1341.748 1341.748 0 0 1-3.211 4.798h1.902s1.112-1.611 2.292-3.347c1.18 1.736 2.29 3.347 2.29 3.347h1.903s-1.837-2.732-3.212-4.798c.107-.162.214-.32.318-.475 1.196-1.789 2.22-2.49 3.03-10.73h-1.5c-.784 6.665-1.297 7.346-2.543 9.277-.075.121-.176.273-.287.444a27.31 27.31 0 0 1-.289-.444c-1.245-1.93-1.759-2.612-2.545-9.276h-1.5c.813 8.239 1.837 8.94 3.034 10.73l.318.474zm26.286 1.189v-1.832h3.3v3.703c0 .261-.118.393-.355.393h-1.755v1.345h1.89c.567 0 .958-.124 1.23-.398.287-.287.398-.616.398-1.169V19.931c0-.542-.134-.916-.418-1.172-.301-.274-.648-.383-1.229-.383H96.31c-.583 0-.927.109-1.23.383-.286.259-.417.63-.417 1.172v11.476c0 2.64-.48 3.513-.532 3.609h1.354c.058 0 .59-.31.59-3.609zm0-11.349c0-.226.139-.34.414-.34h2.469c.275 0 .418.114.418.34v2.965h-3.3v-2.965zm0 4.29h3.3v3.902h-3.3v-3.902zm-3.34 9.324h-3.368a3.29 3.29 0 0 0 .194-.758c.062-.453.235-1.997.283-2.45h-1.413c-.05.446-.225 1.963-.283 2.45a2.733 2.733 0 0 1-.196.758h-2.617v-4.924h6.015v-1.343h-6.015v-2.977h3.763V23.08h-8.984v1.347h3.76v2.977h-6.014v1.343h6.015v4.924h-2.614a2.718 2.718 0 0 1-.198-.758l-.283-2.449h-1.413c.05.452.22 1.997.285 2.45.042.307.115.556.193.757h-3.37v1.344h16.26v-1.343zM71.87 23.09l-.863-4.714h-1.471l.868 4.714h1.466zm36.17 8.386c1.689-2.488 2.347-4.142 2.491-4.64.21-.717-.166-1.611-1.191-1.611h-6.194v-5.167c0-.227.138-.34.414-.34h4.785c.274 0 .418.113.418.34v2.162c0 .263-.12.394-.357.394h-2.994v1.348h3.13c.568 0 .957-.126 1.229-.4.287-.288.4-.618.4-1.17V19.93c0-.542-.134-.916-.42-1.172-.301-.274-.646-.383-1.229-.383h-5.14c-.582 0-.927.109-1.23.383-.28.252-.41.616-.416 1.137 0 .003-.004.007-.004.01v15.11h1.414v-8.54h5.52c.188 0 .305.173.235.394-.295.93-.958 2.122-1.727 3.314-.635-.995-1.217-2.014-1.607-2.936h-1.611a27.98 27.98 0 0 0 2.3 4.295c-1.095 1.557-2.204 2.932-2.673 3.473h1.758c.67-.794 1.258-1.54 1.776-2.239.555.75 1.18 1.507 1.883 2.239h1.806c-.406-.427-1.582-1.85-2.765-3.54zm-42.351-.165h-1.436c.044.345.131.983.247 1.658-.45.072-.981.114-1.484.14v-3.672h1.154c.581 0 .927-.106 1.23-.38.283-.262.418-.633.418-1.172v-6.227c0-.539-.135-.91-.417-1.171-.304-.274-.65-.381-1.231-.381h-1.154v-1.73h-1.413v1.73h-1.153c-.582 0-.926.107-1.231.381-.282.258-.417.631-.417 1.171v6.227c0 .54.135.913.417 1.171.304.275.649.381 1.231.381h1.153v3.709h-3.129v1.348h3.17c.78 0 2.166 0 3.12-.172.059.26.123.5.188.694h1.457c-.331-.975-.62-2.978-.72-3.705zm-2.673-9.863h.975c.276 0 .414.114.414.338v5.97c0 .224-.138.34-.414.34h-.975v-6.648zm-1.412 6.648h-.976c-.274 0-.412-.116-.412-.34v-5.97c0-.224.138-.338.412-.338h.976v6.648zM18.597 42.264c-.61-1.955-1.803-3.493-3.28-4.216.684-.509 1.194-1.295 1.408-2.217.809-.489 2.42-1.373 5.57-2.868 0 0 .284-.153.457.113 0 0 1.754 1.97 3.808 1.868 0 0 .35-.02.502-.403.274-.677-1.601-1.474-1.601-1.474-.883-.383-.768-1.216-.768-1.216.057-.534-.316-.83-.316-.83-.667-.525-2.884.874-2.884.874a214.076 214.076 0 0 0-4.672 2.547c-.116-1.222-.741-2.266-1.628-2.862a17.15 17.15 0 0 0 4.628-1.382c3.833-1.644 4.921-5.496 4.921-5.496 1.602-5.156-1.66-9.235-1.66-9.235-.843-1.059-2.1-1.798-3.338-2.312 3.44-4.773 7.594-6.218 8.327-6.445.309.77 1.32 1.293 2.486 1.216 1.362-.09 2.413-.958 2.345-1.943-.064-.983-1.223-1.707-2.585-1.618-1.196.077-2.149.76-2.319 1.59-5.032 1.562-8.008 4.566-9.585 6.725-1.462-.447-2.636-.588-2.636-.588s-2.683-.224-4.315-2.336c0 0-1.37 2.204-4.737 3.651.013-5.262 2.1-8.613 2.708-9.479.711.451 1.85.273 2.747-.486 1.035-.876 1.356-2.193.708-2.942-.648-.749-2.014-.645-3.049.232-.902.763-1.256 1.857-.91 2.62-2.882 4.001-3.526 7.94-3.541 10.586-1.207.553-4.46 2.506-4.64 7.533 0 0-.461 7.991 6.183 9.633 0 0 1.863.593 4.576.686-.79.66-1.313 1.705-1.36 2.891a214.773 214.773 0 0 0-4.718-2.195s-2.304-1.257-2.934-.694c0 0-.352.319-.263.849 0 0 .17.824-.688 1.261 0 0-1.819.913-1.503 1.57.178.373.526.373.526.373 2.057-.028 3.68-2.1 3.68-2.1.158-.28.452-.144.452-.144 3.086 1.233 4.734 1.997 5.608 2.445.232.804.693 1.49 1.294 1.96-1.54.714-2.78 2.308-3.394 4.343l10.39-.085zM3.955 19.976c.057-4.986 8.016-5.156 8.016-5.156s9.276-.905 9.45 4.42c0 0 .973 4.59-8.646 5.326-9.011.752-8.82-4.59-8.82-4.59zm3.242 7.488c-.363-.127-.428-.457-.345-.758.11-.402.58-.374.795-.314 2.96.81 6.975 1.216 10.968-.843.279-.143.682-.114.86.173.171.275.078.606-.227.79-2.857 1.714-7.644 2.504-12.05.952z"/><path d="M10.35 20.734s.01.236.352.201c.339-.032 2.18-.513 4.553-.45.257-.027.236-.262.236-.262-.143-1.405-1.406-2.428-2.828-2.288-1.42.142-2.457 1.396-2.313 2.799M87.859 41.985c-.34.02-.72.044-1.11.044-.923 0-1.448-.14-1.616-.436-.19-.359-.3-.889-.3-1.488 0-.535.096-1.058.257-1.432.185-.389.716-.577 1.62-.577.352 0 .752.02 1.19.053l.315.033-.001-.942-.218-.018a17.765 17.765 0 0 0-1.285-.053c-.91 0-2.173.12-2.637 1.156-.217.471-.34 1.102-.34 1.78 0 .658.165 1.397.42 1.884.355.663 1.18.972 2.594.972.376 0 .773-.023 1.124-.046l.346-.015-.004-.944-.355.029zm-6.011-4.673c0 .74-.001 1.483-.004 2.226l-.002.325c-.003.393-.003.784-.003 1.176v.09l-3.132-4.048h-.9v5.801h1.098v-.203l-.003-2.16c0-.477-.003-.95-.003-1.43v-.086l3.03 3.875h1.007v-5.772h-1.088v.206zm7.124 5.565h1.088v-5.699h-1.088v5.699zm4.151-5.8l-2.651 5.8h1.165l.799-1.726h2.2l.774 1.727h1.16l-2.601-5.801h-.846zm-.255 3.138l.023-.042c.21-.457.42-.913.627-1.372l.029-.06.666 1.473h-1.345v.001zm-18.94-3.138l-2.652 5.8h1.168l.796-1.726h2.2l.775 1.727h1.158l-2.6-5.801h-.845zm-.255 3.138l.022-.043c.214-.465.429-.927.627-1.371l.029-.06.667 1.473h-1.345v.001zm24.318 1.314V37.1H96.9v4.428c0 1.422 1.343 1.422 1.783 1.422h2.238v-.932h-2.238c-.585.001-.693-.171-.693-.49zm-46.095-3.372h1.956v4.731h1.088v-4.731h2v-.927h-5.043v.927h-.001zm-9.709-1.08l-2.647 5.8h1.165l.797-1.726h2.2l.776 1.727h1.16l-2.603-5.801h-.848zm-.253 3.138l.02-.042c.237-.508.432-.935.628-1.372l.029-.06.67 1.473h-1.347v.001zm18-1.367c-.004-.262.074-.469.226-.605.134-.12.333-.184.573-.184h2.235v-.93h-2.235c-.562 0-1.036.157-1.37.454-.346.308-.522.745-.517 1.265v4.03h1.087v-2.415h3.092v-.93h-3.092v-.685zm-9.818-1.536c0 .653-.002 1.355-.007 2.211-.002.494-.004.992-.004 1.489v.087l-3.132-4.018h-.897v5.801h1.1l-.008-3.184-.001-.609v-.086l.05.068 2.976 3.807h1.011v-5.772h-1.088v.206zm13.627 5.566h1.09v-5.7h-1.09v5.7zm6.009-5.566l-.002.917-.009 2.902-3.131-4.049h-.9v5.801h1.1v-.203c0-.63-.001-1.259-.004-1.888v-.628c0-.362-.004-.716-.004-1.075V39l3.029 3.878h1.01v-5.772h-1.09v.206z"/></g></svg>