<svg width="103" height="36" xmlns="http://www.w3.org/2000/svg" xmlns:xlink="http://www.w3.org/1999/xlink"><defs><path id="a" d="M0 35.624h102.84V0H0z"/></defs><g fill="none" fill-rule="evenodd"><path d="M12.783 10.715a5.339 5.339 0 0 1-5.006 3.462c-2.95 0-5.34-2.379-5.34-5.31V7.731c0-2.93 2.39-5.306 5.34-5.306a5.34 5.34 0 0 1 5.004 3.45h2.547A7.772 7.772 0 0 0 7.778 0C3.482 0 0 3.463 0 7.732v1.154C.013 13.147 3.49 16.6 7.777 16.6a7.767 7.767 0 0 0 7.551-5.885h-2.545zM62.03 27.89c0 2.932-2.39 5.312-5.34 5.312-2.95 0-5.342-2.38-5.342-5.312v-1.135c0-2.931 2.391-5.31 5.343-5.31 2.95 0 5.339 2.379 5.339 5.31v1.135zm-5.34-8.865c-4.294 0-7.777 3.46-7.777 7.73v1.156c.013 4.259 3.488 7.713 7.778 7.713 4.296 0 7.776-3.46 7.776-7.734v-1.135c0-4.27-3.48-7.73-7.776-7.73z" fill="#959EA6"/><mask id="b" fill="#fff"><use xlink:href="#a"/></mask><path fill="#959EA6" mask="url(#b)" d="M37.485 16.6h2.433V0h-2.433zM40.052 19.025H37.35l-6.425 16.6H41.25l-.938-2.422H34.48l4.224-10.915 5.16 13.336h2.614zM24.547 30.778h2.436V14.175h-2.436zM27.118 33.203h-2.705l-.936 2.421h4.576zM17.99 11.754h10.327l-.939-2.424h-5.836L25.155 0h-2.617zM26.376 0l4.55 11.754h2.615L28.994 0zM13.118 19.026v12.798L2.445 19.026H0v16.598h2.436V22.808l10.682 12.816h2.434V19.026zM91.852 21.6h7.699v4.068l1.668-.64V19.94h-4.686v-.915h-1.667v.915h-4.683v7.984c0 .456.373.83.833.83h10.161v6.836l1.664-.642V27.1H91.852v-5.5zM72.907 24.885h13.015v-1.654H72.907zM73.946 22.522h1.666V21.6h7.61v.923h1.664V21.6h1.668v-1.658h-1.668v-.915h-1.664v.915h-7.61v-.915h-1.666v.915H72.28v1.658h1.667zM73.947 28.06h1.666v-2.465h-1.666zM83.222 28.06h1.664v-2.465h-1.664zM78.585 28.06h1.664v-2.465h-1.664z"/><path fill="#959EA6" mask="url(#b)" d="M88.997 33.838h10.53v-1.672h-9.883zM85.917 29.42h-5.669v-.65h-1.665v.65h-5.68l-.638 1.66h2.13L72.65 35.59h1.783l1.747-4.512h2.403v4.512h1.665v-4.512h2.366l1.78 4.512h1.789L84.4 31.079h2.168zM94.866 25.595h1.668v-3.054h-1.668z"/></g></svg>