<svg width="96" height="36" xmlns="http://www.w3.org/2000/svg"><g fill="none" fill-rule="evenodd"><path d="M17.955 35.84C8.039 35.84 0 27.817 0 17.92 0 8.023 8.039 0 17.955 0 27.871 0 35.91 8.023 35.91 17.92c0 9.897-8.039 17.92-17.955 17.92z" fill="#959EA6"/><path d="M19.734 11.463C15.377 9.88 9.006 6.99 9.006 6.99c-.451-.117-.514.32-.514.32-.145 1.754.969 4.608 1.542 5.248.574.64 9.193 3.264 9.193 3.264S12.6 14.49 10.999 14.03c-1.601-.46-1.093.513-1.093.513.328 1.77 1.87 3.786 3.087 3.975 1.216.19 6.341.114 6.341.114s-1.022.118-2.685.341c-1.23.166-2.793.36-3.199.513-.953.36.691 1.798.691 1.798 2.439 2.205 3.736 1.451 3.736 1.451a34.525 34.525 0 0 1 2.452-.695l-.846 3.512h2.436l-1.342 5.311 5.913-7.807h-3.096l.642-1.111c.01.013.012.022.012.022s2.198-3.508 3.04-5.297l.017-.029H27.1c.145-.309.247-.565.29-.74.489-2.049-3.3-2.854-7.657-4.437" fill="#FFF"/><path d="M52.683 15.689h-4.294v3.24h4.294c.564 0 1.022.454 1.022 1.013 0 .56-.458 1.013-1.022 1.013h-4.294v4.861c0 1.118.915 2.025 2.044 2.025h1.828v.001h.012c.565 0 1.023.452 1.023 1.012s-.458 1.013-1.023 1.013l-.012-.002v.002h-2.645c-1.808 0-3.272-1.451-3.272-3.241v-5.671h-1.431a1.018 1.018 0 0 1-1.023-1.013c0-.559.458-1.013 1.023-1.013h1.43v-3.24h-1.43a1.018 1.018 0 0 1-1.023-1.013c0-.559.458-1.013 1.023-1.013h7.77c.564 0 1.022.454 1.022 1.013 0 .56-.458 1.013-1.022 1.013zm0-7.292c.564 0 1.022.454 1.022 1.013 0 .56-.458 1.013-1.022 1.013h-7.778c-.56 0-1.015-.454-1.015-1.012a1 1 0 0 1 .227-.631l1.434-2.304c.299-.48.96-.645 1.479-.368.518.278.695.892.396 1.372l-.572.917h5.829zm14.125 0c.565 0 1.022.454 1.022 1.013 0 .56-.457 1.013-1.022 1.013h-2.565v16.203c0 1.79-1.465 3.241-3.271 3.241h-3.463v-.001l-.013.001a1.018 1.018 0 0 1-1.023-1.013c0-.56.459-1.012 1.023-1.012h2.658c1.13 0 2.045-.908 2.045-2.026V10.423h-5.52a1.018 1.018 0 0 1-1.023-1.013c0-.559.457-1.013 1.022-1.013h10.13zM80.613 15.689h-4.294v3.24h4.294c.564 0 1.022.454 1.022 1.013 0 .56-.458 1.013-1.022 1.013h-4.294v4.861c0 1.118.915 2.025 2.044 2.025h1.828v.001h.012c.565 0 1.023.452 1.023 1.012s-.458 1.013-1.023 1.013l-.012-.002v.002h-2.645c-1.808 0-3.272-1.451-3.272-3.241v-5.671h-1.431a1.018 1.018 0 0 1-1.023-1.013c0-.559.458-1.013 1.023-1.013h1.43v-3.24h-1.43a1.018 1.018 0 0 1-1.023-1.013c0-.559.458-1.013 1.023-1.013h7.77c.564 0 1.022.454 1.022 1.013 0 .56-.458 1.013-1.022 1.013zm0-7.292c.564 0 1.022.454 1.022 1.013 0 .56-.458 1.013-1.022 1.013h-7.778c-.56 0-1.015-.454-1.015-1.012a1 1 0 0 1 .227-.631l1.434-2.304c.299-.48.96-.645 1.479-.368.518.278.695.892.396 1.372l-.572.917h5.829zm14.125 0c.565 0 1.022.454 1.022 1.013 0 .56-.457 1.013-1.022 1.013h-2.565v16.203c0 1.79-1.465 3.241-3.271 3.241h-3.463v-.001l-.013.001a1.018 1.018 0 0 1-1.023-1.013c0-.56.459-1.012 1.023-1.012h2.658c1.13 0 2.045-.908 2.045-2.026V10.423h-5.52a1.018 1.018 0 0 1-1.023-1.013c0-.559.457-1.013 1.022-1.013h10.13z" fill="#959EA6"/></g></svg>