<svg width="1439" height="100" xmlns="http://www.w3.org/2000/svg" style="background:#fff"><g fill="none" fill-rule="evenodd"><path d="M0 37.03C209.634 7.167 396.634-4.336 561 2.523c246.549 10.288 419.613 9.581 617.997 16.098 132.256 4.345 219.257 8.64 261.003 12.884V456.79H0V37.03z" fill="#FCFEFF"/><path d="M-1 26.276C261.774-3.548 491.224-1.79 687.35 31.548c127.602 21.69 337.776-28.812 467.403-19.96 86.418 5.9 181.834 28.11 286.247 66.628V493.68H-1V26.276z" fill="#F2F5F7" opacity=".3"/><path d="M0 68.151C180.194 23.226 408.799.764 685.816.764c277.017 0 528.412 22.462 754.184 67.387v422.43H0V68.15z" fill="#F0F2F5"/><path d="M0 96.701C184.311 32.743 412.916.764 685.816.764c272.9 0 524.294 30.772 754.184 92.317V524H0V96.701z" fill="#FAFBFC"/></g></svg>