<svg width="81" height="36" xmlns="http://www.w3.org/2000/svg" xmlns:xlink="http://www.w3.org/1999/xlink"><defs><path id="a" d="M0 35.84h80.64V0H0z"/></defs><g fill="none" fill-rule="evenodd"><path d="M58.834 28.986h-2v-2.752c0-.63-.513-1.143-1.143-1.143h-9.15c-.63 0-1.143.513-1.143 1.143v2.752h-2v-2.752a3.146 3.146 0 0 1 3.143-3.143h9.15a3.146 3.146 0 0 1 3.143 3.143v2.752zM75.097 19.943l-2.091-.467 1.464-6.552H64.023a.286.286 0 0 1-.286-.286v-1.572c0-.157.128-.286.286-.286h12.765c.183 0 .319.17.28.348l-1.97 8.815zM47.45 18.368a.867.867 0 0 0 0 1.732h7.332a.867.867 0 0 0 0-1.732H47.45zm7.332 3.517H47.45a2.655 2.655 0 0 1-2.652-2.651 2.655 2.655 0 0 1 2.652-2.652h7.332a2.655 2.655 0 0 1 2.652 2.652 2.655 2.655 0 0 1-2.652 2.651z" fill="#959EA6"/><mask id="b" fill="#fff"><use xlink:href="#a"/></mask><path fill="#959EA6" mask="url(#b)" d="M44.692 15.376H57.54v-1.571H44.692z"/><path d="M59.694 17.537a.286.286 0 0 1-.401.05l-6.158-4.797a3.283 3.283 0 0 0-4.038 0l-6.158 4.796a.286.286 0 0 1-.4-.05l-.878-1.126a.285.285 0 0 1 .05-.401l6.157-4.797a5.28 5.28 0 0 1 6.496 0l6.158 4.797a.285.285 0 0 1 .05.4l-.878 1.128zM75.352 23.091H61.317a.286.286 0 0 0-.286.286v1.62c0 .158.128.286.286.286H74.99c.133 0 .25-.093.278-.224l.362-1.62a.285.285 0 0 0-.278-.348M49.217 30.207l-1.742-.39 1.351-6.046 1.743.389zM53.168 30.207l-1.743-.39 1.352-6.046 1.743.389z" fill="#959EA6" mask="url(#b)"/><path d="M68.475 28.321H41.502a.286.286 0 0 0-.286.286v1.571c0 .158.128.286.286.286h26.622c.133 0 .25-.093.278-.223l.352-1.572a.285.285 0 0 0-.28-.348M79.88 19.342a2.56 2.56 0 0 0-1.787-.704H66.632l.72-3.224a.285.285 0 0 0-.278-.348h-1.61a.286.286 0 0 0-.28.223l-.732 3.277c-.118.53-.01 1.094.322 1.523.341.44.858.692 1.412.692H78.14a.357.357 0 0 1 .357.358v1.602c0 1.773-.475 3.137-1.41 4.054-1.03 1.009-2.65 1.52-4.821 1.52h-1.008a.287.287 0 0 0-.28.223l-.35 1.572a.286.286 0 0 0 .279.348h1.359c2.75 0 4.877-.718 6.32-2.132 1.363-1.336 2.054-3.215 2.054-5.584V21.14c0-.682-.27-1.322-.76-1.798M12.915 8.386c-.716 0-1.295.58-1.295 1.296v1.295a1.295 1.295 0 1 0 2.59 0V9.682c0-.716-.58-1.296-1.295-1.296M22.934 8.386c-.716 0-1.296.58-1.296 1.296v1.295a1.295 1.295 0 1 0 2.592 0V9.682c0-.716-.58-1.296-1.296-1.296" fill="#959EA6" mask="url(#b)"/><path d="M29.204 14.801L26.84 6.307l.947-.335c.265-.097 1.014-.471 1.33-1.036.005-.01.496-.919-.289-2.436-.13-.251-.24-.337-.264-.34-.122-.012-.839.047-2.92 2.537l-.474.569-.702-.24c-.028-.008-2.978-.992-6.542-.992-3.565 0-6.515.984-6.544.993l-.7.237-.475-.567c-2.082-2.492-2.798-2.55-2.92-2.537-.024.003-.133.089-.264.34-.785 1.517-.294 2.426-.29 2.436.33.586 1.13.965 1.327 1.035l.951.336L6.645 14.8 4.06 16.033l2.36-8.477c-.526-.323-1.159-.83-1.57-1.565-.52-.926-.726-2.59.255-4.483C5.685.385 6.484.076 7.05.013c1.49-.162 2.96 1.163 4.348 2.755 1.167-.322 3.64-.893 6.526-.893 2.885 0 5.358.57 6.525.893 1.388-1.592 2.86-2.917 4.348-2.755.567.063 1.365.372 1.946 1.495.98 1.893.775 3.557.256 4.483-.412.735-1.045 1.242-1.572 1.565l2.36 8.477-2.584-1.232zM32.412 28.973c-.42-.421-1.171-.478-1.526 0-2.961 3.995-9.911 4.708-12.961 4.708-3.05 0-10-.713-12.962-4.708-.355-.478-1.105-.421-1.527 0a1.03 1.03 0 0 0 .016 1.494c3.465 3.278 8.629 5.373 14.473 5.373 5.843 0 11.008-2.095 14.472-5.373a1.03 1.03 0 0 0 .015-1.494" fill="#959EA6" mask="url(#b)"/><path d="M17.92 27.907c1.483 0 2.474.501 3.614 1.157 1.725.991 2.959 1.531 4.532 1.543h.058c4.11 0 7.491-3.32 7.557-7.433-.066-4.113-3.447-7.434-7.557-7.434h-.058c-1.573.012-2.807.552-4.532 1.544-1.14.656-2.13 1.156-3.614 1.156-1.483 0-2.473-.5-3.614-1.156-1.725-.992-2.958-1.532-4.532-1.544h-.058c-4.11 0-7.491 3.32-7.557 7.434.066 4.112 3.447 7.433 7.557 7.433h.058c1.574-.012 2.807-.552 4.532-1.543 1.14-.656 2.131-1.157 3.614-1.157m8.204 4.86h-.075c-2.252-.018-3.93-.876-5.591-1.832-.941-.54-1.582-.87-2.538-.87-.955 0-1.596.33-2.538.87-1.66.956-3.339 1.814-5.591 1.832h-.075c-5.291 0-9.642-4.281-9.716-9.579v-.03c.074-5.296 4.425-9.577 9.716-9.577h.075c2.252.017 3.93.876 5.591 1.83.942.542 1.583.87 2.538.87.956 0 1.597-.328 2.538-.87 1.661-.954 3.339-1.813 5.591-1.83h.075c5.292 0 9.642 4.28 9.716 9.578v.03c-.074 5.297-4.425 9.578-9.716 9.578" fill="#959EA6" mask="url(#b)"/></g></svg>