<svg width="97" height="102" xmlns="http://www.w3.org/2000/svg" xmlns:xlink="http://www.w3.org/1999/xlink"><defs><path d="M3.94.472h45.393c.934 0 1.83.374 2.485 1.04l16.102 16.33a3.49 3.49 0 0 1 1.005 2.45v60.586a3.49 3.49 0 0 1-3.49 3.49H3.94a3.49 3.49 0 0 1-3.49-3.49V3.962A3.49 3.49 0 0 1 3.94.472z" id="a"/><path d="M10.845 0h15.433c5.99 0 10.845 4.92 10.845 10.99v4.228c0 5.308-3.714 9.738-8.653 10.765-.11.023-.221.044-.333.064-.604.106-.82-.064-1.521.597-.443.417-1.245 1.694-2.405 3.833a.21.21 0 0 1-.376-.013c-1.289-2.837-2.524-4.256-3.707-4.256h-9.283C4.855 26.208 0 21.288 0 15.218V10.99C0 4.92 4.855 0 10.845 0z" id="c"/><linearGradient x1="20.286%" y1="15.107%" x2="83.385%" y2="100%" id="d"><stop stop-color="#78DB5A" offset="0%"/><stop stop-color="#17BD59" offset="100%"/></linearGradient><path d="M.137 6.183a9.013 9.013 0 0 1 5.619-4.147V.168h4.84v2.064a9.044 9.044 0 0 1 5.127 4.302 11.462 11.462 0 0 1-7.602 2.878A11.476 11.476 0 0 1 .137 6.183z" id="e"/><path d="M.11 4.947a7.21 7.21 0 0 1 4.495-3.318V.134h3.873v1.652a7.235 7.235 0 0 1 4.1 3.441A9.18 9.18 0 0 1 .11 4.947z" id="g"/></defs><g fill="none" fill-rule="evenodd"><g transform="translate(4.774 10.589)"><mask id="b" fill="#fff"><use xlink:href="#a"/></mask><use fill="#E6EAF2" xlink:href="#a"/><path d="M49.173.472h19.761v20.001H50.548c-.76 0-1.375-.616-1.375-1.375V.472z" fill="#CAD8E6" mask="url(#b)"/></g><g opacity=".65" fill="#CAD8E6"><path d="M16.954 23.72h22.042v3.53H16.954zM28.555 39.415h32.482v3.53H28.555zM28.555 46.474h32.482v3.53H28.555zM16.954 53.533h44.083v3.53H16.954zM17.254 64.4h44.45v3.53h-44.45zM17.254 71.942h44.45v3.53h-44.45zM17.254 79.375h30.934v3.53H17.254z"/></g><use fill="#40A9FF" transform="translate(.713)" xlink:href="#c"/><g fill="#75DAFF"><path d="M27.819 7.156H10.142V9.51h17.677zM27.819 11.862H10.142v2.353h17.677zM17.958 17.226H10.14v2.353h7.817z"/></g><g><path d="M13.46 0h19.153c7.433 0 13.459 6.11 13.459 13.649v5.25c0 6.592-4.61 12.092-10.738 13.369-.137.028-.275.055-.413.079-.75.131-1.017-.08-1.889.741-.55.518-1.545 2.105-2.986 4.762a.26.26 0 0 1-.465-.016c-1.599-3.525-3.132-5.287-4.601-5.287H13.46C6.025 32.547 0 26.436 0 18.898v-5.25C0 6.112 6.026 0 13.46 0z" fill="url(#d)" transform="matrix(-1 0 0 1 96.953 39.415)"/><path stroke="#FFF" stroke-width=".5" fill="#FFF" fill-rule="nonzero" opacity=".85" d="M84.11 50.258l4.497-2.554-.708-1.283-3.79 2.152-4.142-2.353-4.144 2.353-4.143-2.353-4.143 2.353-4.143-2.353-4.498 2.554.709 1.283 3.789-2.152 4.143 2.353 4.143-2.353 4.143 2.353 4.144-2.353zM84.11 56.141l4.497-2.554-.708-1.283-3.79 2.151-4.142-2.353-4.144 2.353-4.143-2.353-4.143 2.353-4.143-2.353-4.498 2.555.709 1.283 3.789-2.152 4.143 2.353 4.143-2.353 4.143 2.353 4.144-2.353zM67.537 62.024l4.497-2.554-.708-1.284-3.789 2.152-4.143-2.353-4.498 2.554.709 1.284 3.789-2.152z"/></g><g><g transform="translate(56.397 77.653)"><ellipse fill="#1EBD9D" cx="11.601" cy="11.766" rx="11.601" ry="11.766"/><g transform="translate(3.48 12.354)"><mask id="f" fill="#fff"><use xlink:href="#e"/></mask><use fill="#00888C" xlink:href="#e"/><ellipse fill="#015F66" mask="url(#f)" cx="7.541" cy="-.294" rx="2.9" ry="2.647"/></g><path d="M15.721 11.117c-.72 1.658-2.27 2.806-4.064 2.806-1.795 0-3.345-1.148-4.065-2.806a.78.78 0 0 1-.085.004c-.573 0-1.037-.627-1.037-1.4 0-.63.306-1.161.729-1.338.286-2.407 2.173-4.265 4.458-4.265 2.284 0 4.17 1.858 4.457 4.265.423.177.73.709.73 1.338 0 .773-.465 1.4-1.038 1.4a.78.78 0 0 1-.085-.004z" fill="#00888C"/></g><g transform="translate(7.674 31.767)"><ellipse fill="#42C6FF" cx="9.281" cy="9.412" rx="9.281" ry="9.412"/><g transform="translate(2.784 9.883)"><mask id="h" fill="#fff"><use xlink:href="#g"/></mask><use fill="#1286E6" xlink:href="#g"/><ellipse fill="#0E63B3" mask="url(#h)" cx="6.032" cy="-.235" rx="2.32" ry="2.118"/></g><path d="M12.577 8.893c-.576 1.327-1.816 2.245-3.252 2.245-1.436 0-2.675-.918-3.252-2.245a.624.624 0 0 1-.067.004c-.459 0-.83-.502-.83-1.12 0-.503.245-.929.583-1.07.23-1.926 1.739-3.413 3.566-3.413 1.828 0 3.337 1.487 3.566 3.412.338.142.584.568.584 1.07 0 .62-.372 1.121-.83 1.121a.624.624 0 0 1-.068-.004z" fill="#1286E6"/></g></g></g></svg>