<svg width="122" height="91" xmlns="http://www.w3.org/2000/svg" xmlns:xlink="http://www.w3.org/1999/xlink"><defs><linearGradient x1="77.826%" y1="8.213%" x2="16.213%" y2="100%" id="a"><stop stop-color="#78DB5A" offset="0%"/><stop stop-color="#17BD59" offset="100%"/></linearGradient><ellipse id="b" cx="9.448" cy="13.21" rx="9.448" ry="13.21"/></defs><g fill="none" fill-rule="evenodd"><path d="M7.268 83.661h11.629l-.698 4.404C17.943 89.685 16.693 91 15.41 91h-4.653c-1.284 0-2.534-1.314-2.79-2.935l-.698-4.404zm56.69 0h11.63l-.698 4.404C74.633 89.685 73.383 91 72.099 91h-4.652c-1.285 0-2.534-1.314-2.791-2.935l-.698-4.404z" fill="#A3AFBF"/><rect fill="#C1CEDB" y="2.935" width="84.309" height="82.194" rx="11.649"/><rect fill="#A3AFBF" x="7.268" y="10.274" width="69.773" height="67.516" rx="5.825"/><g transform="translate(42.778 27.556)"><rect fill="#40A9FF" width="56.333" height="39.644" rx="1.969"/><path d="M3.93 9.083h34.062v3.64H3.93v-3.64zm0 7.545h34.062v3.64H3.93v-3.64zm0 8.086H29.07v3.64H3.93v-3.64zm45.853-9.092a3.927 3.927 0 0 1-3.93-3.924 3.927 3.927 0 0 1 3.93-3.923c2.17 0 3.93 1.756 3.93 3.923a3.927 3.927 0 0 1-3.93 3.924z" fill="#FFF" opacity=".65"/><path fill="#0C6EC9" opacity=".611" d="M17.443 0h38.89v16.218h-38.89z"/></g><g transform="translate(64.96 5.166)"><rect fill="url(#a)" width="56.333" height="30.736" rx="1.312"/><path d="M3.93 4.436h34.062v3.25H3.93v-3.25zm0 7.466h34.062v3.25H3.93v-3.25zm0 8.148h22.271v3.25H3.931v-3.25zm44.044-9.075a3.927 3.927 0 0 1-3.93-3.923 3.927 3.927 0 0 1 3.93-3.924c2.17 0 3.93 1.757 3.93 3.924a3.927 3.927 0 0 1-3.93 3.923z" fill="#FFF" opacity=".85"/></g><path d="M45.062 0l6.477 1.426a8.737 8.737 0 0 1 6.859 8.533v68.606a8.737 8.737 0 0 1-6.86 8.532l-6.476 1.426V0z" fill="#BFCAD9"/><path d="M11.512 9.167L43.216.226a5.825 5.825 0 0 1 7.406 5.606v76.58a5.825 5.825 0 0 1-7.406 5.607l-31.704-8.942a5.825 5.825 0 0 1-4.244-5.606V14.773a5.825 5.825 0 0 1 4.244-5.606z" fill="#E6EAF2"/><rect fill="#A3AFBF" x="4.361" y="20.548" width="5.814" height="10.274" rx="2.907"/><rect fill="#A3AFBF" x="4.361" y="58.71" width="5.814" height="10.274" rx="2.907"/><use fill="#BFCAD9" xlink:href="#b" transform="translate(17.443 30.823)"/><ellipse fill="#DFE4ED" cx="25.955" cy="43.298" rx="6.541" ry="8.073"/></g></svg>