<svg width="111" height="97" xmlns="http://www.w3.org/2000/svg" xmlns:xlink="http://www.w3.org/1999/xlink"><defs><path d="M2.855.34h32.878c.675 0 1.321.27 1.796.748l11.658 11.76a2.53 2.53 0 0 1 .733 1.78V58.25a2.53 2.53 0 0 1-2.53 2.53H2.855a2.53 2.53 0 0 1-2.53-2.53V2.87A2.53 2.53 0 0 1 2.855.34z" id="a"/><linearGradient x1="92.985%" y1="-5.94%" x2="-9.58%" y2="100%" id="c"><stop stop-color="#78DB5A" offset="0%"/><stop stop-color="#17BD59" offset="100%"/></linearGradient></defs><g fill="none" fill-rule="evenodd"><g transform="rotate(8 33.904 449.9)"><mask id="b" fill="#fff"><use xlink:href="#a"/></mask><use fill="#40A9FF" xlink:href="#a"/><path d="M35.614.34h14.312v14.409H36.61a.997.997 0 0 1-.996-.997V.34z" fill="#1B81E0" mask="url(#b)"/></g><path d="M92.888 16.69L69.59 13.416l-.354 2.518 23.297 3.274.354-2.518zm6.904 11.241l-31.617-4.443-.353 2.518 31.616 4.443.354-2.518zm-1.305 7.723l-31.88-4.48-.353 2.517 31.88 4.48.353-2.517zm-1.5 10.681L74.8 43.217l-.354 2.518 22.186 3.118.354-2.518z" opacity=".65" fill="#94E2FF"/><g transform="rotate(-12 132.906 5.767)"><rect fill="#FFF" width="59.922" height="48.174" rx="3.004"/><rect fill="url(#c)" x="2.996" y="3.011" width="53.93" height="42.152" rx="1.502"/><g opacity=".85" fill="#FFF"><path d="M11.984 12.034V36.14h35.953V12.034H11.984zM8.988 9.033h41.946V39.14H8.988V9.033z" fill-rule="nonzero"/><path d="M21.722 27.85v-6.774H10.486v-3.01h11.236v-7.528h2.996v7.527h10.486v-7.527H38.2v7.527h11.984v3.011H38.2v6.775h11.984v3.01H38.2v7.528h-2.996v-7.527H24.718v7.527h-2.996v-7.527H10.486V27.85h11.236zm2.996 0h10.486v-6.774H24.718v6.775z"/></g></g><g transform="rotate(-15 171.871 -154.49)"><ellipse fill="#36B3A6" cx="19.475" cy="19.571" rx="19.475" ry="19.571"/><path d="M38.95 19.57C38.95 8.763 30.23 0 19.474 0v19.57h19.474z" fill="#60D1CA"/></g><path d="M85.392 51.69h9.734v16.56H83.89V53.192c0-.83.673-1.502 1.502-1.502z" fill="#A3AFBF"/><path d="M3.004 51.69h59.824c.415 0 .751.337.751.751v10.333a3.004 3.004 0 0 0 3.004 3.004h19.409a3.004 3.004 0 0 0 3.004-3.004V52.441c0-.414.336-.75.75-.75h15.11a3.004 3.004 0 0 1 3.003 3.003v38.403a3.004 3.004 0 0 1-3.004 3.004H3.004A3.004 3.004 0 0 1 0 93.097V54.694a3.004 3.004 0 0 1 3.004-3.004z" fill="#E6EAF2"/><path d="M3.004 51.69h29.953V96.1H3.004A3.004 3.004 0 0 1 0 93.098V54.694a3.004 3.004 0 0 1 3.004-3.004z" fill="#C1CEDB"/></g></svg>